<svg fill="none" height="300" viewBox="0 0 24 24" width="300" xmlns="http://www.w3.org/2000/svg" xmlns:xlink="http://www.w3.org/1999/xlink" version="1.1" xmlns:svgjs="http://svgjs.dev/svgjs"><g width="100%" height="100%" transform="matrix(1,0,0,1,0,0)"><linearGradient id="paint0_linear_226_1745" gradientUnits="userSpaceOnUse" x1="12.001" x2="12.001" y1="2" y2="23"><stop offset="0" stop-color="#fd7800"/><stop offset="1" stop-color="#ffc900"/></linearGradient><clipPath id="clip0_226_1745"><path d="m0 0h24v24h-24z" fill="#000000" fill-opacity="1" data-original-color="#000000ff" stroke="none" stroke-opacity="1"/></clipPath><g clip-path="url(#clip0_226_1745)" fill="url(#paint0_linear_226_1745)"><path d="m20.0022 12.5c0-3.584-2.916-6.5-6.5-6.5-.401 0-.793.042-1.174.112 2.783 1.532 4.674 4.493 4.674 7.888 0 1.655-.454 3.232-1.267 4.596 2.486-.913 4.267-3.298 4.267-6.096z" fill="#c9a227" data-original-color="paint0_linear_226_1745" stroke="none" stroke-opacity="1" fill-opacity="1"/><path d="m13.5013 2c-2.292 0-4.47702.736-6.31802 2.127-.176.133-.244.365-.168.572.076.206.27.335.498.327l.156-.01c.11-.008.22-.016.332-.016 1.008 0 1.975.174 2.88002.481.817-.306 1.698-.481 2.62-.481 4.136 0 7.5 3.364 7.5 7.5 0 3.694-2.687 6.766-6.208 7.381-.734.845-1.622 1.57-2.656 2.107-.195.102-.301.319-.261.535s.217.381.436.406c.426.048.815.071 1.189.071 5.79 0 10.5-4.71 10.5-10.5s-4.71-10.5-10.5-10.5z" fill="#c9a227" data-original-color="paint0_linear_226_1745" stroke="none" stroke-opacity="1" fill-opacity="1"/><path d="m8.00012 18c2.20918 0 3.99998-1.7909 3.99998-4s-1.7908-4-3.99998-4c-2.20914 0-4 1.7909-4 4s1.79086 4 4 4z" fill="#c9a227" data-original-color="paint0_linear_226_1745" stroke="none" stroke-opacity="1" fill-opacity="1"/><path d="m8.00012 6c-4.411 0-7.99999793 3.589-7.99999793 8s3.58899793 8 7.99999793 8c4.41098 0 7.99998-3.589 7.99998-8s-3.589-8-7.99998-8zm0 13c-2.757 0-5-2.243-5-5s2.243-5 5-5c2.75698 0 4.99998 2.243 4.99998 5s-2.243 5-4.99998 5z" fill="#c9a227" data-original-color="paint0_linear_226_1745" stroke="none" stroke-opacity="1" fill-opacity="1"/></g></g></svg>