<svg id="Layer_1" enable-background="new 0 0 512 512" height="300" viewBox="0 0 512 512" width="300" xmlns="http://www.w3.org/2000/svg" version="1.1" xmlns:xlink="http://www.w3.org/1999/xlink" xmlns:svgjs="http://svgjs.dev/svgjs"><g width="100%" height="100%" transform="matrix(1,0,0,1,0,0)"><g id="Layer_2_00000103228020870731184650000018004997546752910995_"><g id="link"><path d="m452.7 46.4h-393.4c-32.8 0-59.3 26.6-59.3 59.3v244.6c0 32.7 26.5 59.2 59.3 59.2h127.9l47 47c12.1 12.1 31.7 12.1 43.8 0l47-47h127.8c32.7 0 59.3-26.5 59.3-59.2v-244.6c-.1-32.7-26.6-59.3-59.4-59.3zm-217.1 238.6c0 9.8-7.9 17.7-17.7 17.7h-1.3c-41.7 0-75.6-33.8-75.6-75.6 0-41.7 33.8-75.6 75.6-75.6h1.3c9.8.2 17.5 8.3 17.3 18.1-.2 9.4-7.8 17-17.3 17.3h-1.3c-21.9 0-39.8 17.6-40.2 39.5-.4 22.5 18.4 40.9 40.9 40.9h.6c9.8 0 17.7 8 17.7 17.7zm-10.7-40.4c-9.7 0-17.5-7.8-17.5-17.5 0-9.7 7.8-17.5 17.5-17.5h62.3c9.7 0 17.5 7.8 17.5 17.5 0 9.7-7.8 17.5-17.5 17.5zm146.1-17.5c0 41.7-33.8 75.6-75.6 75.6h-1.3c-9.8 0-17.7-7.9-17.7-17.7 0-9.8 7.9-17.7 17.7-17.7h1.3c21.3 0 38.9-16.6 40.1-37.9 1.4-23.4-17.5-42.5-41-42.5h-.5c-9.8-.2-17.5-8.3-17.3-18.1.2-9.4 7.8-17 17.3-17.3h1.3c41.8 0 75.7 33.8 75.7 75.6z" fill="#ffffff" fill-opacity="1" data-original-color="#000000ff" stroke="none" stroke-opacity="1"/></g></g></g></svg>